<svg xmlns="http://www.w3.org/2000/svg" xmlns:xlink="http://www.w3.org/1999/xlink" width="139" zoomAndPan="magnify" viewBox="0 0 104.25 84.749997" height="113" preserveAspectRatio="xMidYMid meet" version="1.0"><defs><filter x="0%" y="0%" width="100%" height="100%" id="a0369428f6"><feColorMatrix values="0 0 0 0 1 0 0 0 0 1 0 0 0 0 1 0 0 0 -1 1" color-interpolation-filters="sRGB"/></filter><filter x="0%" y="0%" width="100%" height="100%" id="d84528293b"><feImage x="0" y="0" result="source" width="150.12" xlink:href="#09d883a576" height="122.039996"/><feImage x="0" y="0" result="destination" width="150.12" xlink:href="#232b0f4717" height="122.039996"/><feBlend in2="destination" mode="multiply" color-interpolation-filters="sRGB" in="source"/></filter><filter x="0%" y="0%" width="100%" height="100%" id="9d772b246c"><feImage x="0" y="0" result="source" width="150.12" xlink:href="#090dcbf317" height="122.039996"/><feImage x="0" y="0" result="destination" width="150.12" xlink:href="#63a02eb5c6" height="122.039996"/><feComposite color-interpolation-filters="sRGB" in="source" k1="0" k2="1" k3="1" k4="0" in2="destination" operator="arithmetic"/></filter><clipPath id="db4046d6f1"><path d="M 59 2 L 103 2 L 103 46 L 59 46 Z M 59 2 " clip-rule="nonzero"/></clipPath><clipPath id="eb3076df9d"><path d="M 85.527344 2.632812 L 102.667969 28.792969 L 76.511719 45.933594 L 59.367188 19.777344 Z M 85.527344 2.632812 " clip-rule="nonzero"/></clipPath><clipPath id="b53930b519"><path d="M 85.527344 2.632812 L 102.667969 28.792969 L 76.511719 45.933594 L 59.367188 19.777344 Z M 85.527344 2.632812 " clip-rule="nonzero"/></clipPath><clipPath id="44b62cf8e2"><path d="M 85.527344 2.632812 L 102.667969 28.792969 L 76.511719 45.933594 L 59.367188 19.777344 Z M 85.527344 2.632812 " clip-rule="nonzero"/></clipPath><clipPath id="1a8fc9e0fa"><path d="M 16 23 L 41 23 L 41 34 L 16 34 Z M 16 23 " clip-rule="nonzero"/></clipPath><clipPath id="6b5844c003"><path d="M 26.527344 0.632812 L 43.667969 26.792969 L 17.511719 43.933594 L 0.367188 17.777344 Z M 26.527344 0.632812 " clip-rule="nonzero"/></clipPath><clipPath id="ade122a484"><path d="M 26.527344 0.632812 L 43.667969 26.792969 L 17.511719 43.933594 L 0.367188 17.777344 Z M 26.527344 0.632812 " clip-rule="nonzero"/></clipPath><clipPath id="29a36ebc09"><path d="M 26.527344 0.632812 L 43.667969 26.792969 L 17.511719 43.933594 L 0.367188 17.777344 Z M 26.527344 0.632812 " clip-rule="nonzero"/></clipPath><clipPath id="32f6d6249d"><path d="M 14 20 L 41 20 L 41 29 L 14 29 Z M 14 20 " clip-rule="nonzero"/></clipPath><clipPath id="14362946ba"><path d="M 26.527344 0.632812 L 43.667969 26.792969 L 17.511719 43.933594 L 0.367188 17.777344 Z M 26.527344 0.632812 " clip-rule="nonzero"/></clipPath><clipPath id="02da95aeac"><path d="M 26.527344 0.632812 L 43.667969 26.792969 L 17.511719 43.933594 L 0.367188 17.777344 Z M 26.527344 0.632812 " clip-rule="nonzero"/></clipPath><clipPath id="594249caf8"><path d="M 26.527344 0.632812 L 43.667969 26.792969 L 17.511719 43.933594 L 0.367188 17.777344 Z M 26.527344 0.632812 " clip-rule="nonzero"/></clipPath><clipPath id="7374a05617"><path d="M 14 12 L 34 12 L 34 27 L 14 27 Z M 14 12 " clip-rule="nonzero"/></clipPath><clipPath id="d188367050"><path d="M 26.527344 0.632812 L 43.667969 26.792969 L 17.511719 43.933594 L 0.367188 17.777344 Z M 26.527344 0.632812 " clip-rule="nonzero"/></clipPath><clipPath id="7f1aa75106"><path d="M 26.527344 0.632812 L 43.667969 26.792969 L 17.511719 43.933594 L 0.367188 17.777344 Z M 26.527344 0.632812 " clip-rule="nonzero"/></clipPath><clipPath id="b0625e63b8"><path d="M 26.527344 0.632812 L 43.667969 26.792969 L 17.511719 43.933594 L 0.367188 17.777344 Z M 26.527344 0.632812 " clip-rule="nonzero"/></clipPath><clipPath id="1286ba0545"><path d="M 15 4 L 28 4 L 28 26 L 15 26 Z M 15 4 " clip-rule="nonzero"/></clipPath><clipPath id="32e645381c"><path d="M 26.527344 0.632812 L 43.667969 26.792969 L 17.511719 43.933594 L 0.367188 17.777344 Z M 26.527344 0.632812 " clip-rule="nonzero"/></clipPath><clipPath id="7260119f61"><path d="M 26.527344 0.632812 L 43.667969 26.792969 L 17.511719 43.933594 L 0.367188 17.777344 Z M 26.527344 0.632812 " clip-rule="nonzero"/></clipPath><clipPath id="ea27e3d219"><path d="M 26.527344 0.632812 L 43.667969 26.792969 L 17.511719 43.933594 L 0.367188 17.777344 Z M 26.527344 0.632812 " clip-rule="nonzero"/></clipPath><clipPath id="05f41199b3"><path d="M 2 1 L 28 1 L 28 21 L 2 21 Z M 2 1 " clip-rule="nonzero"/></clipPath><clipPath id="c00f9272e5"><path d="M 20.527344 -11.367188 L 37.667969 14.792969 L 11.511719 31.933594 L -5.632812 5.777344 Z M 20.527344 -11.367188 " clip-rule="nonzero"/></clipPath><clipPath id="d66956067a"><path d="M 20.527344 -11.367188 L 37.667969 14.792969 L 11.511719 31.933594 L -5.632812 5.777344 Z M 20.527344 -11.367188 " clip-rule="nonzero"/></clipPath><clipPath id="18a6f89824"><path d="M 20.527344 -11.367188 L 37.667969 14.792969 L 11.511719 31.933594 L -5.632812 5.777344 Z M 20.527344 -11.367188 " clip-rule="nonzero"/></clipPath><clipPath id="56d32f00d1"><rect x="0" width="30" y="0" height="27"/></clipPath><mask id="e79fa9686d"><g><g transform="translate(81.935, 20.644999)"><rect x="-81.935" width="150.12" fill="#000000" height="122.039996" y="-20.644999" fill-opacity="0"/><clipPath id="87c83a96ce"><path d="M 6 12 L 36 12 L 36 39 L 6 39 Z M 6 12 " clip-rule="nonzero"/></clipPath><g clip-path="url(#87c83a96ce)"><clipPath id="4522194b69"><path d="M 26.527344 0.632812 L 43.667969 26.792969 L 17.511719 43.933594 L 0.367188 17.777344 Z M 26.527344 0.632812 " clip-rule="nonzero"/></clipPath><g clip-path="url(#4522194b69)"><clipPath id="66611fdf91"><path d="M 26.527344 0.632812 L 43.667969 26.792969 L 17.511719 43.933594 L 0.367188 17.777344 Z M 26.527344 0.632812 " clip-rule="nonzero"/></clipPath><g clip-path="url(#66611fdf91)"><clipPath id="01d3fa8895"><path d="M 26.527344 0.632812 L 43.667969 26.792969 L 17.511719 43.933594 L 0.367188 17.777344 Z M 26.527344 0.632812 " clip-rule="nonzero"/></clipPath><g clip-path="url(#01d3fa8895)"><rect x="-81.935" width="150.12" fill="#ffffff" height="122.039996" y="-20.644999" fill-opacity="1"/></g></g></g></g></g></g></mask><mask id="f11d58da58"><g filter="url(#a0369428f6)"><g transform="translate(81.935, 20.644999)"><rect x="-81.935" width="150.12" fill="#000000" height="122.039996" y="-20.644999" fill-opacity="0"/><g clip-path="url(#87c83a96ce)"><g clip-path="url(#4522194b69)"><g clip-path="url(#66611fdf91)"><g clip-path="url(#01d3fa8895)"><rect x="-81.935" width="150.12" fill="#ffffff" height="122.039996" y="-20.644999" fill-opacity="1"/></g></g></g></g></g></g></mask><mask id="02fe197a60"><g transform="translate(81.935, 20.644999)"><rect x="-81.935" width="150.12" fill="#ffffff" y="-20.644999" height="122.039996" fill-opacity="1"/></g></mask><g id="09d883a576" mask="url(#02fe197a60)"><g transform="translate(81.935, 20.644999)"><g transform="matrix(1, 0, 0, 1, 6, 12)"><g clip-path="url(#56d32f00d1)"><g clip-path="url(#05f41199b3)"><g clip-path="url(#c00f9272e5)"><g clip-path="url(#d66956067a)"><g clip-path="url(#18a6f89824)"><path fill="#087a38" d="M 19.832031 1.925781 L 18.148438 3.558594 C 17.933594 3.765625 17.765625 3.925781 17.542969 4.164062 C 17 4.738281 16.714844 5.160156 15.382812 6.554688 C 14.203125 7.792969 13.890625 8.066406 12.757812 9.28125 C 11.546875 10.585938 11.527344 10.675781 10.664062 11.566406 C 9.722656 12.546875 8.976562 13.238281 8.199219 13.949219 C 7.066406 14.996094 6.347656 15.652344 5.316406 16.457031 C 4.472656 17.117188 3.601562 17.734375 2.695312 18.308594 L 3.917969 20.355469 L 8.777344 19.988281 C 9.652344 19.8125 10.816406 19.566406 12.183594 19.238281 C 13.289062 18.96875 14.121094 18.75 15.5625 18.363281 C 17.300781 17.898438 18.234375 17.644531 19.023438 17.414062 C 21.066406 16.808594 23.0625 16.074219 25.011719 15.207031 L 24.410156 14.324219 C 23.753906 14.710938 23.078125 15.0625 22.382812 15.378906 C 21.34375 15.84375 20.273438 16.230469 19.179688 16.546875 C 17.5625 17.023438 16.351562 17.238281 14.179688 17.621094 C 12.886719 17.847656 11.761719 18.019531 10.859375 18.148438 C 11.753906 17.445312 12.703125 16.820312 13.699219 16.269531 C 14.109375 16.042969 15.398438 15.472656 17.976562 14.339844 C 21.40625 12.832031 21.089844 12.941406 21.789062 12.65625 C 23.617188 11.917969 25.484375 11.292969 27.386719 10.785156 L 26.929688 9.632812 C 26.066406 10.019531 24.800781 10.578125 23.246094 11.203125 C 21.390625 11.953125 20.332031 12.316406 18.707031 12.914062 C 13.480469 14.835938 11.410156 15.867188 11.300781 15.652344 C 11.191406 15.4375 13.316406 14.261719 15.976562 12.433594 C 18.523438 10.6875 20.9375 8.769531 23.214844 6.683594 L 22.441406 5.867188 C 20.457031 7.828125 18.300781 9.578125 15.972656 11.113281 C 13.148438 12.980469 9.679688 14.789062 9.402344 14.394531 C 9.246094 14.171875 10.230469 13.398438 12.921875 10.613281 C 14.796875 8.679688 16.199219 7.09375 17.203125 5.96875 C 18.460938 4.554688 19.492188 3.355469 20.222656 2.488281 Z M 19.832031 1.925781 " fill-opacity="1" fill-rule="nonzero"/></g></g></g></g></g></g></g></g><g id="232b0f4717" transform="translate(81.935, 20.644999)"><g clip-path="url(#1a8fc9e0fa)"><g clip-path="url(#6b5844c003)"><g clip-path="url(#ade122a484)"><g clip-path="url(#29a36ebc09)"><path fill="#96b522" d="M 18.734375 28.609375 C 19.710938 27.964844 20.863281 27.214844 22.460938 26.636719 C 23.195312 26.375 23.03125 26.503906 25.300781 25.878906 C 27.703125 25.21875 27.566406 25.160156 28.457031 24.992188 C 30.308594 24.636719 30.464844 24.964844 32.105469 24.585938 C 33.746094 24.210938 33.738281 23.84375 34.890625 23.753906 C 36.453125 23.632812 37.648438 24.207031 38.164062 24.457031 C 38.820312 24.78125 39.808594 25.265625 40.417969 26.355469 C 40.632812 26.742188 41.089844 27.554688 40.78125 28.332031 C 40.703125 28.527344 40.527344 28.855469 39.441406 29.492188 C 38.617188 29.96875 37.753906 30.351562 36.847656 30.640625 C 35.496094 31.082031 35.308594 30.976562 34.035156 31.4375 C 33.25 31.722656 33.242188 31.789062 32.289062 32.15625 C 30.945312 32.679688 30.265625 32.941406 29.5 33.054688 C 29.203125 33.097656 28.789062 33.132812 25.613281 32.476562 C 23.550781 32.050781 23.421875 31.972656 22.527344 31.863281 C 21.050781 31.679688 20.789062 31.816406 19.816406 31.652344 C 18.988281 31.511719 17.816406 31.183594 16.460938 30.320312 C 17.183594 29.703125 17.941406 29.132812 18.734375 28.609375 Z M 18.734375 28.609375 " fill-opacity="1" fill-rule="nonzero"/></g></g></g></g><g clip-path="url(#32f6d6249d)"><g clip-path="url(#14362946ba)"><g clip-path="url(#02da95aeac)"><g clip-path="url(#594249caf8)"><path fill="#96b522" d="M 16.527344 28.9375 C 18.296875 28.785156 19.792969 28.617188 20.960938 28.46875 C 23.105469 28.203125 23.507812 28.089844 23.949219 27.910156 C 24.742188 27.585938 25.210938 27.222656 26.355469 26.910156 C 26.703125 26.816406 27.0625 26.75 27.789062 26.625 C 28.304688 26.53125 28.980469 26.421875 30.242188 26.257812 C 32.351562 25.984375 32.171875 26.074219 32.527344 25.96875 C 33.582031 25.671875 33.59375 25.363281 35.035156 24.730469 C 36.121094 24.25 36.503906 24.253906 37.058594 24.039062 C 37.953125 23.65625 38.609375 23.449219 38.765625 23.394531 C 39.171875 23.25 39.730469 22.855469 40.351562 21.730469 C 39.765625 21.050781 39.042969 20.558594 38.191406 20.253906 C 37.578125 20.046875 37.136719 20.039062 35.882812 20.03125 C 33.179688 20.015625 31.8125 20 31.222656 20.0625 C 29.820312 20.207031 29.070312 20.285156 28.019531 20.570312 C 26.589844 20.957031 25.589844 21.46875 24.371094 22.097656 C 23.742188 22.421875 22.71875 23.058594 20.695312 24.316406 C 18.21875 25.859375 17.753906 26.175781 17.167969 26.648438 C 16.355469 27.296875 15.601562 28 14.902344 28.765625 Z M 16.527344 28.9375 " fill-opacity="1" fill-rule="nonzero"/></g></g></g></g><g clip-path="url(#7374a05617)"><g clip-path="url(#d188367050)"><g clip-path="url(#7f1aa75106)"><g clip-path="url(#b0625e63b8)"><path fill="#96b522" d="M 14.867188 26.71875 C 15.367188 26.59375 16.113281 26.398438 17.019531 26.160156 C 19.644531 25.464844 19.773438 25.386719 20.527344 25.253906 C 22.660156 24.878906 22.652344 25.316406 23.824219 24.875 C 24.882812 24.472656 24.953125 24.089844 26.613281 23.355469 C 27.585938 22.925781 27.628906 23.027344 28.425781 22.632812 C 29.050781 22.320312 29.941406 21.871094 30.816406 20.988281 C 31.402344 20.386719 31.878906 19.710938 32.25 18.960938 C 32.746094 18 32.953125 17.175781 33.105469 16.542969 C 33.25 15.941406 33.351562 15.335938 33.410156 14.71875 C 33.320312 14.03125 33.023438 13.457031 32.511719 12.992188 C 32.046875 12.574219 31.5 12.339844 30.867188 12.289062 C 30.597656 12.269531 30.140625 12.285156 28.675781 13.03125 C 27.898438 13.40625 27.15625 13.839844 26.449219 14.332031 C 25.550781 14.964844 24.96875 15.503906 24.015625 16.390625 C 23.730469 16.660156 23.265625 17.101562 21.726562 18.667969 C 20.195312 20.226562 19.429688 21.003906 18.914062 21.59375 C 18.226562 22.375 17.699219 23.046875 16.648438 24.394531 C 15.902344 25.335938 15.296875 26.140625 14.867188 26.71875 Z M 14.867188 26.71875 " fill-opacity="1" fill-rule="nonzero"/></g></g></g></g><g clip-path="url(#1286ba0545)"><g clip-path="url(#32e645381c)"><g clip-path="url(#7260119f61)"><g clip-path="url(#ea27e3d219)"><path fill="#96b522" d="M 15.589844 25.960938 C 16.804688 24.425781 17.996094 23.523438 18.882812 22.980469 C 19.804688 22.410156 20.125 22.390625 20.820312 21.78125 C 21.8125 20.910156 21.820312 20.363281 23.019531 18.84375 C 23.976562 17.632812 24.058594 17.878906 24.847656 16.820312 C 25.589844 15.828125 26.167969 14.753906 26.582031 13.59375 C 26.945312 12.558594 27.246094 11.703125 27.152344 10.539062 C 27.0625 9.378906 26.625 8.511719 26.355469 8.007812 C 26.082031 7.484375 25.710938 6.785156 24.953125 6.148438 C 24.523438 5.789062 23.53125 4.957031 22.050781 4.976562 C 21.804688 4.980469 19.851562 5.011719 19.191406 6.191406 C 18.46875 7.480469 20.179688 8.507812 19.644531 10.160156 C 19.066406 11.953125 16.519531 12.355469 16.476562 13.980469 C 16.480469 14.351562 16.503906 14.71875 16.546875 15.085938 C 16.648438 16.027344 16.828125 16.472656 16.863281 18.03125 C 16.878906 19.011719 16.832031 19.992188 16.71875 20.972656 C 16.527344 22.671875 16.152344 24.335938 15.589844 25.960938 Z M 15.589844 25.960938 " fill-opacity="1" fill-rule="nonzero"/></g></g></g></g></g><g id="090dcbf317" mask="url(#e79fa9686d)" filter="url(#d84528293b)"><rect x="0" width="150.12" fill="#000000" y="0" height="122.039996" fill-opacity="1"/></g><g id="63a02eb5c6" mask="url(#f11d58da58)"><g><g transform="translate(81.935, 20.644999)"><g clip-path="url(#1a8fc9e0fa)"><g clip-path="url(#6b5844c003)"><g clip-path="url(#ade122a484)"><g clip-path="url(#29a36ebc09)"><path fill="#96b522" d="M 18.734375 28.609375 C 19.710938 27.964844 20.863281 27.214844 22.460938 26.636719 C 23.195312 26.375 23.03125 26.503906 25.300781 25.878906 C 27.703125 25.21875 27.566406 25.160156 28.457031 24.992188 C 30.308594 24.636719 30.464844 24.964844 32.105469 24.585938 C 33.746094 24.210938 33.738281 23.84375 34.890625 23.753906 C 36.453125 23.632812 37.648438 24.207031 38.164062 24.457031 C 38.820312 24.78125 39.808594 25.265625 40.417969 26.355469 C 40.632812 26.742188 41.089844 27.554688 40.78125 28.332031 C 40.703125 28.527344 40.527344 28.855469 39.441406 29.492188 C 38.617188 29.96875 37.753906 30.351562 36.847656 30.640625 C 35.496094 31.082031 35.308594 30.976562 34.035156 31.4375 C 33.25 31.722656 33.242188 31.789062 32.289062 32.15625 C 30.945312 32.679688 30.265625 32.941406 29.5 33.054688 C 29.203125 33.097656 28.789062 33.132812 25.613281 32.476562 C 23.550781 32.050781 23.421875 31.972656 22.527344 31.863281 C 21.050781 31.679688 20.789062 31.816406 19.816406 31.652344 C 18.988281 31.511719 17.816406 31.183594 16.460938 30.320312 C 17.183594 29.703125 17.941406 29.132812 18.734375 28.609375 Z M 18.734375 28.609375 " fill-opacity="1" fill-rule="nonzero"/></g></g></g></g><g clip-path="url(#32f6d6249d)"><g clip-path="url(#14362946ba)"><g clip-path="url(#02da95aeac)"><g clip-path="url(#594249caf8)"><path fill="#96b522" d="M 16.527344 28.9375 C 18.296875 28.785156 19.792969 28.617188 20.960938 28.46875 C 23.105469 28.203125 23.507812 28.089844 23.949219 27.910156 C 24.742188 27.585938 25.210938 27.222656 26.355469 26.910156 C 26.703125 26.816406 27.0625 26.75 27.789062 26.625 C 28.304688 26.53125 28.980469 26.421875 30.242188 26.257812 C 32.351562 25.984375 32.171875 26.074219 32.527344 25.96875 C 33.582031 25.671875 33.59375 25.363281 35.035156 24.730469 C 36.121094 24.25 36.503906 24.253906 37.058594 24.039062 C 37.953125 23.65625 38.609375 23.449219 38.765625 23.394531 C 39.171875 23.25 39.730469 22.855469 40.351562 21.730469 C 39.765625 21.050781 39.042969 20.558594 38.191406 20.253906 C 37.578125 20.046875 37.136719 20.039062 35.882812 20.03125 C 33.179688 20.015625 31.8125 20 31.222656 20.0625 C 29.820312 20.207031 29.070312 20.285156 28.019531 20.570312 C 26.589844 20.957031 25.589844 21.46875 24.371094 22.097656 C 23.742188 22.421875 22.71875 23.058594 20.695312 24.316406 C 18.21875 25.859375 17.753906 26.175781 17.167969 26.648438 C 16.355469 27.296875 15.601562 28 14.902344 28.765625 Z M 16.527344 28.9375 " fill-opacity="1" fill-rule="nonzero"/></g></g></g></g><g clip-path="url(#7374a05617)"><g clip-path="url(#d188367050)"><g clip-path="url(#7f1aa75106)"><g clip-path="url(#b0625e63b8)"><path fill="#96b522" d="M 14.867188 26.71875 C 15.367188 26.59375 16.113281 26.398438 17.019531 26.160156 C 19.644531 25.464844 19.773438 25.386719 20.527344 25.253906 C 22.660156 24.878906 22.652344 25.316406 23.824219 24.875 C 24.882812 24.472656 24.953125 24.089844 26.613281 23.355469 C 27.585938 22.925781 27.628906 23.027344 28.425781 22.632812 C 29.050781 22.320312 29.941406 21.871094 30.816406 20.988281 C 31.402344 20.386719 31.878906 19.710938 32.25 18.960938 C 32.746094 18 32.953125 17.175781 33.105469 16.542969 C 33.25 15.941406 33.351562 15.335938 33.410156 14.71875 C 33.320312 14.03125 33.023438 13.457031 32.511719 12.992188 C 32.046875 12.574219 31.5 12.339844 30.867188 12.289062 C 30.597656 12.269531 30.140625 12.285156 28.675781 13.03125 C 27.898438 13.40625 27.15625 13.839844 26.449219 14.332031 C 25.550781 14.964844 24.96875 15.503906 24.015625 16.390625 C 23.730469 16.660156 23.265625 17.101562 21.726562 18.667969 C 20.195312 20.226562 19.429688 21.003906 18.914062 21.59375 C 18.226562 22.375 17.699219 23.046875 16.648438 24.394531 C 15.902344 25.335938 15.296875 26.140625 14.867188 26.71875 Z M 14.867188 26.71875 " fill-opacity="1" fill-rule="nonzero"/></g></g></g></g><g clip-path="url(#1286ba0545)"><g clip-path="url(#32e645381c)"><g clip-path="url(#7260119f61)"><g clip-path="url(#ea27e3d219)"><path fill="#96b522" d="M 15.589844 25.960938 C 16.804688 24.425781 17.996094 23.523438 18.882812 22.980469 C 19.804688 22.410156 20.125 22.390625 20.820312 21.78125 C 21.8125 20.910156 21.820312 20.363281 23.019531 18.84375 C 23.976562 17.632812 24.058594 17.878906 24.847656 16.820312 C 25.589844 15.828125 26.167969 14.753906 26.582031 13.59375 C 26.945312 12.558594 27.246094 11.703125 27.152344 10.539062 C 27.0625 9.378906 26.625 8.511719 26.355469 8.007812 C 26.082031 7.484375 25.710938 6.785156 24.953125 6.148438 C 24.523438 5.789062 23.53125 4.957031 22.050781 4.976562 C 21.804688 4.980469 19.851562 5.011719 19.191406 6.191406 C 18.46875 7.480469 20.179688 8.507812 19.644531 10.160156 C 19.066406 11.953125 16.519531 12.355469 16.476562 13.980469 C 16.480469 14.351562 16.503906 14.71875 16.546875 15.085938 C 16.648438 16.027344 16.828125 16.472656 16.863281 18.03125 C 16.878906 19.011719 16.832031 19.992188 16.71875 20.972656 C 16.527344 22.671875 16.152344 24.335938 15.589844 25.960938 Z M 15.589844 25.960938 " fill-opacity="1" fill-rule="nonzero"/></g></g></g></g></g></g></g><clipPath id="0ff2caa9d5"><rect x="0" width="44" y="0" height="44"/></clipPath><clipPath id="144fdec714"><path d="M 26 56 L 85 56 L 85 75 L 26 75 Z M 26 56 " clip-rule="nonzero"/></clipPath><clipPath id="f7efe60196"><path d="M 78.378906 41.410156 L 86.183594 68.609375 L 34.648438 83.390625 L 26.84375 56.191406 Z M 78.378906 41.410156 " clip-rule="nonzero"/></clipPath><clipPath id="dd0d115fcd"><path d="M 78.378906 41.410156 L 86.183594 68.609375 L 34.648438 83.390625 L 26.84375 56.191406 Z M 78.378906 41.410156 " clip-rule="nonzero"/></clipPath><clipPath id="a47f86b2fe"><path d="M 78.378906 41.410156 L 86.183594 68.609375 L 34.648438 83.390625 L 26.84375 56.191406 Z M 78.378906 41.410156 " clip-rule="nonzero"/></clipPath><clipPath id="57bf07cd46"><path d="M 6 11 L 36 11 L 36 42 L 6 42 Z M 6 11 " clip-rule="nonzero"/></clipPath><clipPath id="2a49273bb3"><path d="M 0 9.949219 L 26.585938 0.261719 L 40.609375 38.738281 L 14.023438 48.429688 Z M 0 9.949219 " clip-rule="nonzero"/></clipPath><clipPath id="a5ec08c70b"><path d="M 0 9.949219 L 26.585938 0.261719 L 40.609375 38.738281 L 14.023438 48.429688 Z M 0 9.949219 " clip-rule="nonzero"/></clipPath><clipPath id="04e873dabc"><path d="M 0 9.949219 L 26.585938 0.261719 L 40.609375 38.738281 L 14.023438 48.429688 Z M 0 9.949219 " clip-rule="nonzero"/></clipPath><clipPath id="570901496b"><path d="M 2 5 L 16 5 L 16 19 L 2 19 Z M 2 5 " clip-rule="nonzero"/></clipPath><clipPath id="e33fd66437"><path d="M 0 9.949219 L 26.585938 0.261719 L 40.609375 38.738281 L 14.023438 48.429688 Z M 0 9.949219 " clip-rule="nonzero"/></clipPath><clipPath id="d121712f3b"><path d="M 0 9.949219 L 26.585938 0.261719 L 40.609375 38.738281 L 14.023438 48.429688 Z M 0 9.949219 " clip-rule="nonzero"/></clipPath><clipPath id="6a55ed8826"><path d="M 0 9.949219 L 26.585938 0.261719 L 40.609375 38.738281 L 14.023438 48.429688 Z M 0 9.949219 " clip-rule="nonzero"/></clipPath><clipPath id="89f0b49357"><path d="M 4 19 L 16 19 L 16 31 L 4 31 Z M 4 19 " clip-rule="nonzero"/></clipPath><clipPath id="8ed7e92dc2"><path d="M 0 9.949219 L 26.585938 0.261719 L 40.609375 38.738281 L 14.023438 48.429688 Z M 0 9.949219 " clip-rule="nonzero"/></clipPath><clipPath id="5b8f058aa2"><path d="M 0 9.949219 L 26.585938 0.261719 L 40.609375 38.738281 L 14.023438 48.429688 Z M 0 9.949219 " clip-rule="nonzero"/></clipPath><clipPath id="8890ccb574"><path d="M 0 9.949219 L 26.585938 0.261719 L 40.609375 38.738281 L 14.023438 48.429688 Z M 0 9.949219 " clip-rule="nonzero"/></clipPath><clipPath id="2f1b666253"><path d="M 4 19 L 15 19 L 15 31 L 4 31 Z M 4 19 " clip-rule="nonzero"/></clipPath><clipPath id="d6cfb94416"><path d="M 0 9.949219 L 26.585938 0.261719 L 40.609375 38.738281 L 14.023438 48.429688 Z M 0 9.949219 " clip-rule="nonzero"/></clipPath><clipPath id="52f45654f6"><path d="M 0 9.949219 L 26.585938 0.261719 L 40.609375 38.738281 L 14.023438 48.429688 Z M 0 9.949219 " clip-rule="nonzero"/></clipPath><clipPath id="faf5c431bb"><path d="M 0 9.949219 L 26.585938 0.261719 L 40.609375 38.738281 L 14.023438 48.429688 Z M 0 9.949219 " clip-rule="nonzero"/></clipPath><clipPath id="f2a9ae95a0"><path d="M 7 17 L 19 17 L 19 29 L 7 29 Z M 7 17 " clip-rule="nonzero"/></clipPath><clipPath id="5d5340fa45"><path d="M 0 9.949219 L 26.585938 0.261719 L 40.609375 38.738281 L 14.023438 48.429688 Z M 0 9.949219 " clip-rule="nonzero"/></clipPath><clipPath id="d52be51c29"><path d="M 0 9.949219 L 26.585938 0.261719 L 40.609375 38.738281 L 14.023438 48.429688 Z M 0 9.949219 " clip-rule="nonzero"/></clipPath><clipPath id="6a605c37fb"><path d="M 0 9.949219 L 26.585938 0.261719 L 40.609375 38.738281 L 14.023438 48.429688 Z M 0 9.949219 " clip-rule="nonzero"/></clipPath><clipPath id="49223600dc"><path d="M 11 14 L 24 14 L 24 26 L 11 26 Z M 11 14 " clip-rule="nonzero"/></clipPath><clipPath id="6de49c0bd7"><path d="M 0 9.949219 L 26.585938 0.261719 L 40.609375 38.738281 L 14.023438 48.429688 Z M 0 9.949219 " clip-rule="nonzero"/></clipPath><clipPath id="0a402ef466"><path d="M 0 9.949219 L 26.585938 0.261719 L 40.609375 38.738281 L 14.023438 48.429688 Z M 0 9.949219 " clip-rule="nonzero"/></clipPath><clipPath id="f3253afc9b"><path d="M 0 9.949219 L 26.585938 0.261719 L 40.609375 38.738281 L 14.023438 48.429688 Z M 0 9.949219 " clip-rule="nonzero"/></clipPath><clipPath id="d225563cfc"><path d="M 12 13 L 23 13 L 23 27 L 12 27 Z M 12 13 " clip-rule="nonzero"/></clipPath><clipPath id="bddec19e75"><path d="M 0 9.949219 L 26.585938 0.261719 L 40.609375 38.738281 L 14.023438 48.429688 Z M 0 9.949219 " clip-rule="nonzero"/></clipPath><clipPath id="596c40dec6"><path d="M 0 9.949219 L 26.585938 0.261719 L 40.609375 38.738281 L 14.023438 48.429688 Z M 0 9.949219 " clip-rule="nonzero"/></clipPath><clipPath id="e715f1978e"><path d="M 0 9.949219 L 26.585938 0.261719 L 40.609375 38.738281 L 14.023438 48.429688 Z M 0 9.949219 " clip-rule="nonzero"/></clipPath><clipPath id="cb61df8976"><path d="M 15 11 L 28 11 L 28 22 L 15 22 Z M 15 11 " clip-rule="nonzero"/></clipPath><clipPath id="f3545829d0"><path d="M 0 9.949219 L 26.585938 0.261719 L 40.609375 38.738281 L 14.023438 48.429688 Z M 0 9.949219 " clip-rule="nonzero"/></clipPath><clipPath id="e17bc14243"><path d="M 0 9.949219 L 26.585938 0.261719 L 40.609375 38.738281 L 14.023438 48.429688 Z M 0 9.949219 " clip-rule="nonzero"/></clipPath><clipPath id="f86d53d609"><path d="M 0 9.949219 L 26.585938 0.261719 L 40.609375 38.738281 L 14.023438 48.429688 Z M 0 9.949219 " clip-rule="nonzero"/></clipPath><clipPath id="e8a2aab797"><path d="M 16 10 L 27 10 L 27 23 L 16 23 Z M 16 10 " clip-rule="nonzero"/></clipPath><clipPath id="985d0cc106"><path d="M 0 9.949219 L 26.585938 0.261719 L 40.609375 38.738281 L 14.023438 48.429688 Z M 0 9.949219 " clip-rule="nonzero"/></clipPath><clipPath id="d9db42df82"><path d="M 0 9.949219 L 26.585938 0.261719 L 40.609375 38.738281 L 14.023438 48.429688 Z M 0 9.949219 " clip-rule="nonzero"/></clipPath><clipPath id="900be2561e"><path d="M 0 9.949219 L 26.585938 0.261719 L 40.609375 38.738281 L 14.023438 48.429688 Z M 0 9.949219 " clip-rule="nonzero"/></clipPath><clipPath id="9d19a0b7e1"><path d="M 8 25 L 22 25 L 22 37 L 8 37 Z M 8 25 " clip-rule="nonzero"/></clipPath><clipPath id="b10f74070c"><path d="M 0 9.949219 L 26.585938 0.261719 L 40.609375 38.738281 L 14.023438 48.429688 Z M 0 9.949219 " clip-rule="nonzero"/></clipPath><clipPath id="004ceb3815"><path d="M 0 9.949219 L 26.585938 0.261719 L 40.609375 38.738281 L 14.023438 48.429688 Z M 0 9.949219 " clip-rule="nonzero"/></clipPath><clipPath id="d21a99b7df"><path d="M 0 9.949219 L 26.585938 0.261719 L 40.609375 38.738281 L 14.023438 48.429688 Z M 0 9.949219 " clip-rule="nonzero"/></clipPath><clipPath id="038bcc7617"><path d="M 9 24 L 20 24 L 20 38 L 9 38 Z M 9 24 " clip-rule="nonzero"/></clipPath><clipPath id="64d47cefce"><path d="M 0 9.949219 L 26.585938 0.261719 L 40.609375 38.738281 L 14.023438 48.429688 Z M 0 9.949219 " clip-rule="nonzero"/></clipPath><clipPath id="fb4171611d"><path d="M 0 9.949219 L 26.585938 0.261719 L 40.609375 38.738281 L 14.023438 48.429688 Z M 0 9.949219 " clip-rule="nonzero"/></clipPath><clipPath id="0c22a66300"><path d="M 0 9.949219 L 26.585938 0.261719 L 40.609375 38.738281 L 14.023438 48.429688 Z M 0 9.949219 " clip-rule="nonzero"/></clipPath><clipPath id="85543cf6cb"><path d="M 13 23 L 26 23 L 26 34 L 13 34 Z M 13 23 " clip-rule="nonzero"/></clipPath><clipPath id="e4e79a67b0"><path d="M 0 9.949219 L 26.585938 0.261719 L 40.609375 38.738281 L 14.023438 48.429688 Z M 0 9.949219 " clip-rule="nonzero"/></clipPath><clipPath id="93bfe279cc"><path d="M 0 9.949219 L 26.585938 0.261719 L 40.609375 38.738281 L 14.023438 48.429688 Z M 0 9.949219 " clip-rule="nonzero"/></clipPath><clipPath id="fe993e4350"><path d="M 0 9.949219 L 26.585938 0.261719 L 40.609375 38.738281 L 14.023438 48.429688 Z M 0 9.949219 " clip-rule="nonzero"/></clipPath><clipPath id="9c6beb5b79"><path d="M 14 22 L 25 22 L 25 35 L 14 35 Z M 14 22 " clip-rule="nonzero"/></clipPath><clipPath id="8a73144318"><path d="M 0 9.949219 L 26.585938 0.261719 L 40.609375 38.738281 L 14.023438 48.429688 Z M 0 9.949219 " clip-rule="nonzero"/></clipPath><clipPath id="960cab5fb6"><path d="M 0 9.949219 L 26.585938 0.261719 L 40.609375 38.738281 L 14.023438 48.429688 Z M 0 9.949219 " clip-rule="nonzero"/></clipPath><clipPath id="129f605570"><path d="M 0 9.949219 L 26.585938 0.261719 L 40.609375 38.738281 L 14.023438 48.429688 Z M 0 9.949219 " clip-rule="nonzero"/></clipPath><clipPath id="c13240ac91"><path d="M 17 20 L 30 20 L 30 31 L 17 31 Z M 17 20 " clip-rule="nonzero"/></clipPath><clipPath id="0dc44fa28e"><path d="M 0 9.949219 L 26.585938 0.261719 L 40.609375 38.738281 L 14.023438 48.429688 Z M 0 9.949219 " clip-rule="nonzero"/></clipPath><clipPath id="f683f463f2"><path d="M 0 9.949219 L 26.585938 0.261719 L 40.609375 38.738281 L 14.023438 48.429688 Z M 0 9.949219 " clip-rule="nonzero"/></clipPath><clipPath id="4c2536fb27"><path d="M 0 9.949219 L 26.585938 0.261719 L 40.609375 38.738281 L 14.023438 48.429688 Z M 0 9.949219 " clip-rule="nonzero"/></clipPath><clipPath id="0e423d6264"><path d="M 18 19 L 29 19 L 29 32 L 18 32 Z M 18 19 " clip-rule="nonzero"/></clipPath><clipPath id="f6964bee85"><path d="M 0 9.949219 L 26.585938 0.261719 L 40.609375 38.738281 L 14.023438 48.429688 Z M 0 9.949219 " clip-rule="nonzero"/></clipPath><clipPath id="932c9865cc"><path d="M 0 9.949219 L 26.585938 0.261719 L 40.609375 38.738281 L 14.023438 48.429688 Z M 0 9.949219 " clip-rule="nonzero"/></clipPath><clipPath id="cfa8b3ecec"><path d="M 0 9.949219 L 26.585938 0.261719 L 40.609375 38.738281 L 14.023438 48.429688 Z M 0 9.949219 " clip-rule="nonzero"/></clipPath><clipPath id="6bda2cef06"><path d="M 21 16 L 35 16 L 35 28 L 21 28 Z M 21 16 " clip-rule="nonzero"/></clipPath><clipPath id="1317750f35"><path d="M 0 9.949219 L 26.585938 0.261719 L 40.609375 38.738281 L 14.023438 48.429688 Z M 0 9.949219 " clip-rule="nonzero"/></clipPath><clipPath id="be4a6e24de"><path d="M 0 9.949219 L 26.585938 0.261719 L 40.609375 38.738281 L 14.023438 48.429688 Z M 0 9.949219 " clip-rule="nonzero"/></clipPath><clipPath id="78e69c9de3"><path d="M 0 9.949219 L 26.585938 0.261719 L 40.609375 38.738281 L 14.023438 48.429688 Z M 0 9.949219 " clip-rule="nonzero"/></clipPath><clipPath id="a11a53d616"><path d="M 22 15 L 33 15 L 33 29 L 22 29 Z M 22 15 " clip-rule="nonzero"/></clipPath><clipPath id="989fe86111"><path d="M 0 9.949219 L 26.585938 0.261719 L 40.609375 38.738281 L 14.023438 48.429688 Z M 0 9.949219 " clip-rule="nonzero"/></clipPath><clipPath id="372e3b059f"><path d="M 0 9.949219 L 26.585938 0.261719 L 40.609375 38.738281 L 14.023438 48.429688 Z M 0 9.949219 " clip-rule="nonzero"/></clipPath><clipPath id="c51e145ef9"><path d="M 0 9.949219 L 26.585938 0.261719 L 40.609375 38.738281 L 14.023438 48.429688 Z M 0 9.949219 " clip-rule="nonzero"/></clipPath><clipPath id="30ca69379e"><path d="M 16 30 L 30 30 L 30 41 L 16 41 Z M 16 30 " clip-rule="nonzero"/></clipPath><clipPath id="9ac9110357"><path d="M 0 9.949219 L 26.585938 0.261719 L 40.609375 38.738281 L 14.023438 48.429688 Z M 0 9.949219 " clip-rule="nonzero"/></clipPath><clipPath id="fa03371b6b"><path d="M 0 9.949219 L 26.585938 0.261719 L 40.609375 38.738281 L 14.023438 48.429688 Z M 0 9.949219 " clip-rule="nonzero"/></clipPath><clipPath id="bf1c27c612"><path d="M 0 9.949219 L 26.585938 0.261719 L 40.609375 38.738281 L 14.023438 48.429688 Z M 0 9.949219 " clip-rule="nonzero"/></clipPath><clipPath id="8d00c0550f"><path d="M 18 29 L 29 29 L 29 42 L 18 42 Z M 18 29 " clip-rule="nonzero"/></clipPath><clipPath id="8ae731c703"><path d="M 0 9.949219 L 26.585938 0.261719 L 40.609375 38.738281 L 14.023438 48.429688 Z M 0 9.949219 " clip-rule="nonzero"/></clipPath><clipPath id="81bb2ca550"><path d="M 0 9.949219 L 26.585938 0.261719 L 40.609375 38.738281 L 14.023438 48.429688 Z M 0 9.949219 " clip-rule="nonzero"/></clipPath><clipPath id="7c705d9d1b"><path d="M 0 9.949219 L 26.585938 0.261719 L 40.609375 38.738281 L 14.023438 48.429688 Z M 0 9.949219 " clip-rule="nonzero"/></clipPath><clipPath id="c7cfaad5dd"><path d="M 22 26 L 33 26 L 33 39 L 22 39 Z M 22 26 " clip-rule="nonzero"/></clipPath><clipPath id="2f1dbda91e"><path d="M 0 9.949219 L 26.585938 0.261719 L 40.609375 38.738281 L 14.023438 48.429688 Z M 0 9.949219 " clip-rule="nonzero"/></clipPath><clipPath id="6003f120e3"><path d="M 0 9.949219 L 26.585938 0.261719 L 40.609375 38.738281 L 14.023438 48.429688 Z M 0 9.949219 " clip-rule="nonzero"/></clipPath><clipPath id="d55d180e2f"><path d="M 0 9.949219 L 26.585938 0.261719 L 40.609375 38.738281 L 14.023438 48.429688 Z M 0 9.949219 " clip-rule="nonzero"/></clipPath><clipPath id="493772cbc8"><path d="M 21 27 L 34 27 L 34 38 L 21 38 Z M 21 27 " clip-rule="nonzero"/></clipPath><clipPath id="d0b4c8163f"><path d="M 0 9.949219 L 26.585938 0.261719 L 40.609375 38.738281 L 14.023438 48.429688 Z M 0 9.949219 " clip-rule="nonzero"/></clipPath><clipPath id="00abed821c"><path d="M 0 9.949219 L 26.585938 0.261719 L 40.609375 38.738281 L 14.023438 48.429688 Z M 0 9.949219 " clip-rule="nonzero"/></clipPath><clipPath id="0e32aeb41e"><path d="M 0 9.949219 L 26.585938 0.261719 L 40.609375 38.738281 L 14.023438 48.429688 Z M 0 9.949219 " clip-rule="nonzero"/></clipPath><clipPath id="dea1524b2d"><path d="M 25 24 L 37 24 L 37 35 L 25 35 Z M 25 24 " clip-rule="nonzero"/></clipPath><clipPath id="95f93fd579"><path d="M 0 9.949219 L 26.585938 0.261719 L 40.609375 38.738281 L 14.023438 48.429688 Z M 0 9.949219 " clip-rule="nonzero"/></clipPath><clipPath id="471ba9ac04"><path d="M 0 9.949219 L 26.585938 0.261719 L 40.609375 38.738281 L 14.023438 48.429688 Z M 0 9.949219 " clip-rule="nonzero"/></clipPath><clipPath id="3882d03f78"><path d="M 0 9.949219 L 26.585938 0.261719 L 40.609375 38.738281 L 14.023438 48.429688 Z M 0 9.949219 " clip-rule="nonzero"/></clipPath><clipPath id="355d4277eb"><path d="M 25 24 L 36 24 L 36 37 L 25 37 Z M 25 24 " clip-rule="nonzero"/></clipPath><clipPath id="423240082b"><path d="M 0 9.949219 L 26.585938 0.261719 L 40.609375 38.738281 L 14.023438 48.429688 Z M 0 9.949219 " clip-rule="nonzero"/></clipPath><clipPath id="d7f8d93ecc"><path d="M 0 9.949219 L 26.585938 0.261719 L 40.609375 38.738281 L 14.023438 48.429688 Z M 0 9.949219 " clip-rule="nonzero"/></clipPath><clipPath id="a9ef8d4a51"><path d="M 0 9.949219 L 26.585938 0.261719 L 40.609375 38.738281 L 14.023438 48.429688 Z M 0 9.949219 " clip-rule="nonzero"/></clipPath><clipPath id="dfa7d1050a"><path d="M 47 32 L 56 32 L 56 55 L 47 55 Z M 47 32 " clip-rule="nonzero"/></clipPath><clipPath id="8001ac19f6"><path d="M 31.855469 27.253906 L 55.582031 11.835938 L 74.246094 40.558594 L 50.519531 55.976562 Z M 31.855469 27.253906 " clip-rule="nonzero"/></clipPath><clipPath id="a649ccbe7b"><path d="M 31.855469 27.253906 L 55.582031 11.835938 L 74.246094 40.558594 L 50.519531 55.976562 Z M 31.855469 27.253906 " clip-rule="nonzero"/></clipPath><clipPath id="de8cb26a66"><path d="M 31.855469 27.253906 L 55.582031 11.835938 L 74.246094 40.558594 L 50.519531 55.976562 Z M 31.855469 27.253906 " clip-rule="nonzero"/></clipPath><clipPath id="41c5711957"><path d="M 48 15 L 59 15 L 59 34 L 48 34 Z M 48 15 " clip-rule="nonzero"/></clipPath><clipPath id="53bbe60d9a"><path d="M 31.855469 27.253906 L 55.582031 11.835938 L 74.246094 40.558594 L 50.519531 55.976562 Z M 31.855469 27.253906 " clip-rule="nonzero"/></clipPath><clipPath id="93020d0c52"><path d="M 31.855469 27.253906 L 55.582031 11.835938 L 74.246094 40.558594 L 50.519531 55.976562 Z M 31.855469 27.253906 " clip-rule="nonzero"/></clipPath><clipPath id="7053b203e4"><path d="M 31.855469 27.253906 L 55.582031 11.835938 L 74.246094 40.558594 L 50.519531 55.976562 Z M 31.855469 27.253906 " clip-rule="nonzero"/></clipPath><clipPath id="a78315bef0"><path d="M 47 14 L 60 14 L 60 35 L 47 35 Z M 47 14 " clip-rule="nonzero"/></clipPath><clipPath id="85ac0a4f27"><path d="M 31.855469 27.253906 L 55.582031 11.835938 L 74.246094 40.558594 L 50.519531 55.976562 Z M 31.855469 27.253906 " clip-rule="nonzero"/></clipPath><clipPath id="2508641eec"><path d="M 31.855469 27.253906 L 55.582031 11.835938 L 74.246094 40.558594 L 50.519531 55.976562 Z M 31.855469 27.253906 " clip-rule="nonzero"/></clipPath><clipPath id="7597d186bb"><path d="M 31.855469 27.253906 L 55.582031 11.835938 L 74.246094 40.558594 L 50.519531 55.976562 Z M 31.855469 27.253906 " clip-rule="nonzero"/></clipPath></defs><g clip-path="url(#db4046d6f1)"><g clip-path="url(#eb3076df9d)"><g clip-path="url(#b53930b519)"><g clip-path="url(#44b62cf8e2)"><g transform="matrix(1, 0, 0, 1, 59, 2)"><g clip-path="url(#0ff2caa9d5)"><g transform="translate(-81.935, -20.644999)" filter="url(#9d772b246c)"><rect x="0" width="150.12" fill="#000000" height="122.039996" y="0" fill-opacity="1"/></g></g></g></g></g></g></g><g clip-path="url(#144fdec714)"><g clip-path="url(#f7efe60196)"><g clip-path="url(#dd0d115fcd)"><g clip-path="url(#a47f86b2fe)"><path fill="#f3af34" d="M 74.945312 61.425781 C 74.945312 61.425781 72.601562 62.214844 70.175781 62.792969 C 56.25 66.121094 41.804688 62.347656 41.804688 62.347656 C 36.539062 60.96875 31.554688 58.917969 26.847656 56.195312 L 28.589844 61.277344 C 31.53125 66.722656 35.09375 69.53125 37.546875 71.007812 C 48.960938 77.886719 66.503906 74.25 81.195312 61.652344 L 82.140625 63.511719 L 84.484375 62.695312 L 81.265625 56.472656 C 80.675781 56.734375 80.082031 57 79.488281 57.265625 L 80.230469 59.347656 C 78.503906 60.132812 76.742188 60.824219 74.945312 61.425781 Z M 74.945312 61.425781 " fill-opacity="1" fill-rule="nonzero"/></g></g></g></g><g clip-path="url(#57bf07cd46)"><g clip-path="url(#2a49273bb3)"><g clip-path="url(#a5ec08c70b)"><g clip-path="url(#04e873dabc)"><path fill="#e5460f" d="M 12.605469 18.183594 C 10.113281 17.453125 7.371094 19.269531 6.46875 21.707031 C 5.566406 24.144531 6.191406 26.929688 7.453125 29.199219 C 8.71875 31.472656 10.570312 33.347656 12.308594 35.277344 C 13.476562 36.570312 14.617188 37.914062 16.039062 38.921875 C 19.074219 41.070312 25.210938 41.367188 28.914062 41.65625 C 29.660156 41.714844 28.191406 41.835938 28.914062 41.65625 C 30.011719 41.382812 30.265625 40.773438 30.789062 39.773438 C 32.695312 36.125 34.847656 40.839844 35.023438 37.246094 C 35.199219 33.597656 34.757812 22.703125 33.257812 19.371094 C 32.472656 17.628906 31.550781 15.910156 30.234375 14.523438 C 27.714844 11.871094 23.773438 10.664062 20.207031 11.457031 C 16.640625 12.246094 13.578125 15.007812 12.421875 18.476562 " fill-opacity="1" fill-rule="nonzero"/></g></g></g></g><g clip-path="url(#570901496b)"><g clip-path="url(#e33fd66437)"><g clip-path="url(#d121712f3b)"><g clip-path="url(#6a55ed8826)"><path fill="#109566" d="M 14.097656 15.339844 C 14.597656 12.230469 14.863281 9.085938 14.886719 5.9375 C 13.40625 8.09375 12.585938 10.699219 12.570312 13.316406 C 11.375 10.859375 8.625 9.636719 6.09375 8.613281 C 5.660156 8.4375 5.21875 8.261719 4.753906 8.214844 C 6.925781 9.960938 8.859375 12 10.488281 14.261719 C 7.976562 13.316406 5.203125 12.363281 2.683594 13.273438 C 4.816406 13.828125 7.007812 14.414062 8.773438 15.730469 C 6.972656 16.285156 5.261719 17.125 3.722656 18.210938 C 5.648438 18.414062 7.59375 18.425781 9.519531 18.25 C 10.699219 18.140625 11.898438 17.957031 12.953125 17.417969 C 14.003906 16.878906 14.910156 15.933594 15.136719 14.769531 C 15.273438 14.085938 15.167969 13.378906 15.0625 12.6875 C 14.929688 11.808594 14.796875 10.929688 14.664062 10.050781 " fill-opacity="1" fill-rule="nonzero"/></g></g></g></g><g clip-path="url(#89f0b49357)"><g clip-path="url(#8ed7e92dc2)"><g clip-path="url(#5b8f058aa2)"><g clip-path="url(#8890ccb574)"><path stroke-linecap="butt" transform="matrix(0.066184, -0.0241177, 0.0241514, 0.0662764, -24.675129, 3.781522)" fill="none" stroke-linejoin="miter" d="M 347.223652 444.912991 C 351.262036 449.211601 355.300419 453.510211 359.390906 457.82778 " stroke="#000000" stroke-width="5" stroke-opacity="1" stroke-miterlimit="10"/></g></g></g></g><g clip-path="url(#2f1b666253)"><g clip-path="url(#d6cfb94416)"><g clip-path="url(#52f45654f6)"><g clip-path="url(#faf5c431bb)"><path stroke-linecap="butt" transform="matrix(0.066184, -0.0241177, 0.0241514, 0.0662764, -24.675129, 3.781522)" fill="none" stroke-linejoin="miter" d="M 356.12828 441.375387 C 353.342593 448.200543 351.111045 455.286287 349.438494 462.45757 " stroke="#000000" stroke-width="5" stroke-opacity="1" stroke-miterlimit="10"/></g></g></g></g><g clip-path="url(#f2a9ae95a0)"><g clip-path="url(#5d5340fa45)"><g clip-path="url(#d52be51c29)"><g clip-path="url(#6a605c37fb)"><path stroke-linecap="butt" transform="matrix(0.066184, -0.0241177, 0.0241514, 0.0662764, -24.675129, 3.781522)" fill="none" stroke-linejoin="miter" d="M 396.788813 432.655002 C 402.694488 436.041764 408.600163 439.428526 414.524824 442.763258 C 416.130285 443.70111 417.768861 444.709952 418.60162 446.309642 " stroke="#000000" stroke-width="5" stroke-opacity="1" stroke-miterlimit="10"/><path stroke-linecap="butt" transform="matrix(0.066184, -0.0241177, 0.0241514, 0.0662764, -24.675129, 3.781522)" fill="none" stroke-linejoin="miter" d="M 413.014693 427.007528 C 409.261585 435.189868 406.720961 443.931304 405.544711 452.815596 " stroke="#000000" stroke-width="5" stroke-opacity="1" stroke-miterlimit="10"/></g></g></g></g><g clip-path="url(#49223600dc)"><g clip-path="url(#6de49c0bd7)"><g clip-path="url(#0a402ef466)"><g clip-path="url(#f3253afc9b)"><path stroke-linecap="butt" transform="matrix(0.066184, -0.0241177, 0.0241514, 0.0662764, -24.675129, 3.781522)" fill="none" stroke-linejoin="miter" d="M 468.616654 413.409977 C 476.175035 417.9286 483.406233 422.858611 490.452425 428.133871 " stroke="#000000" stroke-width="5" stroke-opacity="1" stroke-miterlimit="10"/></g></g></g></g><g clip-path="url(#d225563cfc)"><g clip-path="url(#bddec19e75)"><g clip-path="url(#596c40dec6)"><g clip-path="url(#e715f1978e)"><path stroke-linecap="butt" transform="matrix(0.066184, -0.0241177, 0.0241514, 0.0662764, -24.675129, 3.781522)" fill="none" stroke-linejoin="miter" d="M 483.626952 404.785792 C 480.351159 414.733171 477.856901 424.964948 476.096934 435.287114 " stroke="#000000" stroke-width="5" stroke-opacity="1" stroke-miterlimit="10"/></g></g></g></g><g clip-path="url(#cb61df8976)"><g clip-path="url(#f3545829d0)"><g clip-path="url(#e17bc14243)"><g clip-path="url(#f86d53d609)"><path stroke-linecap="butt" transform="matrix(0.066184, -0.0241177, 0.0241514, 0.0662764, -24.675129, 3.781522)" fill="none" stroke-linejoin="miter" d="M 540.881158 386.013487 C 549.127023 389.780323 556.703952 394.895083 563.285199 401.120988 " stroke="#000000" stroke-width="5" stroke-opacity="1" stroke-miterlimit="10"/></g></g></g></g><g clip-path="url(#e8a2aab797)"><g clip-path="url(#985d0cc106)"><g clip-path="url(#d9db42df82)"><g clip-path="url(#900be2561e)"><path stroke-linecap="butt" transform="matrix(0.066184, -0.0241177, 0.0241514, 0.0662764, -24.675129, 3.781522)" fill="none" stroke-linejoin="miter" d="M 557.45233 381.198928 C 553.300949 389.825726 550.362053 399.01162 548.574265 408.43958 " stroke="#000000" stroke-width="5" stroke-opacity="1" stroke-miterlimit="10"/></g></g></g></g><g clip-path="url(#9d19a0b7e1)"><g clip-path="url(#b10f74070c)"><g clip-path="url(#004ceb3815)"><g clip-path="url(#d21a99b7df)"><path stroke-linecap="butt" transform="matrix(0.066184, -0.0241177, 0.0241514, 0.0662764, -24.675129, 3.781522)" fill="none" stroke-linejoin="miter" d="M 381.852993 541.030673 C 393.925294 547.25083 404.256594 556.78634 411.464409 568.250046 " stroke="#000000" stroke-width="5" stroke-opacity="1" stroke-miterlimit="10"/></g></g></g></g><g clip-path="url(#038bcc7617)"><g clip-path="url(#64d47cefce)"><g clip-path="url(#fb4171611d)"><g clip-path="url(#0c22a66300)"><path stroke-linecap="butt" transform="matrix(0.066184, -0.0241177, 0.0241514, 0.0662764, -24.675129, 3.781522)" fill="none" stroke-linejoin="miter" d="M 399.875076 534.504421 C 394.100588 547.255679 389.799096 560.660831 387.174593 574.3226 " stroke="#000000" stroke-width="5" stroke-opacity="1" stroke-miterlimit="10"/></g></g></g></g><g clip-path="url(#85543cf6cb)"><g clip-path="url(#e4e79a67b0)"><g clip-path="url(#93bfe279cc)"><g clip-path="url(#fe993e4350)"><path stroke-linecap="butt" transform="matrix(0.066184, -0.0241177, 0.0241514, 0.0662764, -24.675129, 3.781522)" fill="none" stroke-linejoin="miter" d="M 455.118976 531.915999 C 465.855603 537.591171 476.592229 543.266343 487.309869 548.993544 " stroke="#000000" stroke-width="5" stroke-opacity="1" stroke-miterlimit="10"/></g></g></g></g><g clip-path="url(#9c6beb5b79)"><g clip-path="url(#8a73144318)"><g clip-path="url(#960cab5fb6)"><g clip-path="url(#129f605570)"><path stroke-linecap="butt" transform="matrix(0.066184, -0.0241177, 0.0241514, 0.0662764, -24.675129, 3.781522)" fill="none" stroke-linejoin="miter" d="M 475.731169 527.511052 C 471.432315 537.027206 468.658559 547.216213 467.528677 557.590847 " stroke="#000000" stroke-width="5" stroke-opacity="1" stroke-miterlimit="10"/></g></g></g></g><g clip-path="url(#c13240ac91)"><g clip-path="url(#0dc44fa28e)"><g clip-path="url(#f683f463f2)"><g clip-path="url(#4c2536fb27)"><path stroke-linecap="butt" transform="matrix(0.066184, -0.0241177, 0.0241514, 0.0662764, -24.675129, 3.781522)" fill="none" stroke-linejoin="miter" d="M 525.547568 515.049793 C 536.181309 518.742546 546.292706 524.1902 555.26139 530.990189 " stroke="#000000" stroke-width="5" stroke-opacity="1" stroke-miterlimit="10"/></g></g></g></g><g clip-path="url(#0e423d6264)"><g clip-path="url(#f6964bee85)"><g clip-path="url(#932c9865cc)"><g clip-path="url(#cfa8b3ecec)"><path stroke-linecap="butt" transform="matrix(0.066184, -0.0241177, 0.0241514, 0.0662764, -24.675129, 3.781522)" fill="none" stroke-linejoin="miter" d="M 545.663899 508.28367 C 540.444869 519.351016 536.921376 531.271116 535.425457 543.45753 " stroke="#000000" stroke-width="5" stroke-opacity="1" stroke-miterlimit="10"/></g></g></g></g><g clip-path="url(#6bda2cef06)"><g clip-path="url(#1317750f35)"><g clip-path="url(#be4a6e24de)"><g clip-path="url(#78e69c9de3)"><path stroke-linecap="butt" transform="matrix(0.066184, -0.0241177, 0.0241514, 0.0662764, -24.675129, 3.781522)" fill="none" stroke-linejoin="miter" d="M 598.123808 489.063395 C 608.923129 493.111096 619.309608 498.128401 629.179041 504.077393 " stroke="#000000" stroke-width="5" stroke-opacity="1" stroke-miterlimit="10"/></g></g></g></g><g clip-path="url(#a11a53d616)"><g clip-path="url(#989fe86111)"><g clip-path="url(#372e3b059f)"><g clip-path="url(#c51e145ef9)"><path stroke-linecap="butt" transform="matrix(0.066184, -0.0241177, 0.0241514, 0.0662764, -24.675129, 3.781522)" fill="none" stroke-linejoin="miter" d="M 617.547359 483.872273 C 612.149499 493.16532 608.304996 503.377259 606.222702 513.935764 " stroke="#000000" stroke-width="5" stroke-opacity="1" stroke-miterlimit="10"/></g></g></g></g><g clip-path="url(#30ca69379e)"><g clip-path="url(#9ac9110357)"><g clip-path="url(#fa03371b6b)"><g clip-path="url(#bf1c27c612)"><path stroke-linecap="butt" transform="matrix(0.066184, -0.0241177, 0.0241514, 0.0662764, -24.675129, 3.781522)" fill="none" stroke-linejoin="miter" d="M 468.546691 642.302665 C 476.688791 645.383415 484.759802 648.497235 492.830814 651.611056 C 496.302686 652.933393 500.446594 655.325423 499.941919 658.972794 " stroke="#000000" stroke-width="5" stroke-opacity="1" stroke-miterlimit="10"/></g></g></g></g><g clip-path="url(#8d00c0550f)"><g clip-path="url(#8ae731c703)"><g clip-path="url(#81bb2ca550)"><g clip-path="url(#7c705d9d1b)"><path stroke-linecap="butt" transform="matrix(0.066184, -0.0241177, 0.0241514, 0.0662764, -24.675129, 3.781522)" fill="none" stroke-linejoin="miter" d="M 490.458345 635.954096 C 484.973948 647.101693 481.099867 659.012093 478.935891 671.250098 " stroke="#000000" stroke-width="5" stroke-opacity="1" stroke-miterlimit="10"/></g></g></g></g><g clip-path="url(#c7cfaad5dd)"><g clip-path="url(#2f1dbda91e)"><g clip-path="url(#6003f120e3)"><g clip-path="url(#d55d180e2f)"><path stroke-linecap="butt" transform="matrix(0.066184, -0.0241177, 0.0241514, 0.0662764, -24.675129, 3.781522)" fill="none" stroke-linejoin="miter" d="M 562.301216 622.490539 C 558.636864 632.532279 555.024614 642.592979 551.360262 652.634719 C 551.512592 651.570314 551.664921 650.50591 551.836238 649.389476 " stroke="#000000" stroke-width="5" stroke-opacity="1" stroke-miterlimit="10"/></g></g></g></g><g clip-path="url(#493772cbc8)"><g clip-path="url(#d0b4c8163f)"><g clip-path="url(#00abed821c)"><g clip-path="url(#0e32aeb41e)"><path stroke-linecap="butt" transform="matrix(0.066184, -0.0241177, 0.0241514, 0.0662764, -24.675129, 3.781522)" fill="none" stroke-linejoin="miter" d="M 547.623398 629.880121 C 555.546496 634.531463 563.488581 639.130775 571.411679 643.782117 " stroke="#000000" stroke-width="5" stroke-opacity="1" stroke-miterlimit="10"/></g></g></g></g><g clip-path="url(#dea1524b2d)"><g clip-path="url(#95f93fd579)"><g clip-path="url(#471ba9ac04)"><g clip-path="url(#3882d03f78)"><path stroke-linecap="butt" transform="matrix(0.066184, -0.0241177, 0.0241514, 0.0662764, -24.675129, 3.781522)" fill="none" stroke-linejoin="miter" d="M 605.794242 607.787173 C 612.205932 612.536847 618.617622 617.28652 624.977209 622.017234 " stroke="#000000" stroke-width="5" stroke-opacity="1" stroke-miterlimit="10"/></g></g></g></g><g clip-path="url(#355d4277eb)"><g clip-path="url(#423240082b)"><g clip-path="url(#d7f8d93ecc)"><g clip-path="url(#a9ef8d4a51)"><path stroke-linecap="butt" transform="matrix(0.066184, -0.0241177, 0.0241514, 0.0662764, -24.675129, 3.781522)" fill="none" stroke-linejoin="miter" d="M 618.795972 605.799424 C 614.090451 614.165635 610.924159 623.327719 609.363767 632.779489 " stroke="#000000" stroke-width="5" stroke-opacity="1" stroke-miterlimit="10"/></g></g></g></g><g clip-path="url(#dfa7d1050a)"><g clip-path="url(#8001ac19f6)"><g clip-path="url(#a649ccbe7b)"><g clip-path="url(#de8cb26a66)"><path fill="#e57f33" d="M 49.621094 32.3125 C 47.101562 36.390625 46.730469 36.667969 47.882812 41.574219 C 48.476562 44.097656 47.828125 46.714844 48.386719 49.214844 C 48.554688 49.957031 49.113281 50.574219 49.355469 51.269531 C 49.847656 52.6875 49.804688 54.835938 51.777344 54.589844 C 52.726562 54.472656 52.832031 50.742188 52.785156 49.957031 C 52.519531 45.613281 55.535156 41.753906 55.882812 37.46875 C 55.957031 36.53125 55.621094 35.523438 55.410156 34.617188 C 54.796875 31.992188 53.023438 32.464844 50.894531 32.664062 C 50.335938 32.71875 50.03125 32.09375 49.621094 32.3125 Z M 49.621094 32.3125 " fill-opacity="1" fill-rule="nonzero"/></g></g></g></g><g clip-path="url(#41c5711957)"><g clip-path="url(#53bbe60d9a)"><g clip-path="url(#93020d0c52)"><g clip-path="url(#7053b203e4)"><path fill="#73937f" d="M 49.621094 32.3125 C 50.375 33.246094 49.214844 28.3125 49.066406 27.628906 C 48.832031 26.535156 48.550781 25.355469 48.460938 24.242188 C 48.382812 23.253906 48.3125 22.25 48.375 21.265625 C 48.445312 20.144531 48.058594 18.066406 48.558594 17.023438 C 49.015625 16.070312 50.21875 19.171875 50.261719 19.320312 C 51.3125 22.878906 51.617188 26.421875 51.589844 30.109375 C 51.585938 30.6875 51.285156 32.4375 51.546875 32.839844 C 51.75 33.152344 51.671875 32.113281 51.746094 31.75 C 51.945312 30.792969 52.316406 29.886719 52.613281 28.960938 C 53.222656 27.082031 54.808594 15.0625 57.359375 16.007812 C 58.449219 16.414062 58.277344 17.816406 58.191406 18.722656 C 57.980469 20.988281 56.683594 22.875 56.050781 25.019531 C 55.28125 27.621094 54.292969 37.5625 49.621094 32.3125 Z M 49.621094 32.3125 " fill-opacity="1" fill-rule="nonzero"/></g></g></g></g><g clip-path="url(#a78315bef0)"><g clip-path="url(#85ac0a4f27)"><g clip-path="url(#2508641eec)"><g clip-path="url(#7597d186bb)"><path stroke-linecap="butt" transform="matrix(0.597643, -0.388387, 0.39198, 0.603173, -89.286602, 227.101723)" fill="none" stroke-linejoin="miter" d="M 312.330818 -121.829225 C 312.503982 -120.169918 314.910934 -126.799472 315.258924 -127.70873 C 315.819383 -129.161175 316.390399 -130.749298 317.135818 -132.115027 C 317.799461 -133.326175 318.484239 -134.549618 319.310328 -135.64969 C 320.25013 -136.903207 321.383934 -139.618467 322.769499 -140.455431 C 324.035828 -141.220219 323.080029 -136.693583 323.017096 -136.488012 C 321.532673 -131.544047 319.182481 -127.183462 316.331188 -122.905921 C 315.884612 -122.235002 314.192879 -120.422994 314.193173 -119.755759 C 314.193223 -119.237633 314.895688 -120.507973 315.260731 -120.875203 C 316.226753 -121.839838 317.356148 -122.615085 318.413164 -123.469319 C 320.56648 -125.197823 331.621232 -138.00678 333.899304 -134.97268 C 334.870829 -133.673587 333.596529 -132.169171 332.802595 -131.177918 C 330.822356 -128.696827 327.854283 -127.479997 325.470321 -125.459626 C 322.576118 -123.010092 313.813201 -112.170731 312.330818 -121.829225 Z M 312.330818 -121.829225 " stroke="#73937f" stroke-width="0.265" stroke-opacity="1" stroke-miterlimit="4"/></g></g></g></g></svg>